<svg id="qilogo" xmlns="http://www.w3.org/2000/svg" width="16.004" height="16.017" viewBox="0 0 16.004 16.017">
  <path id="Path_209" data-name="Path 209" d="M172.621,301.821a5.18,5.18,0,1,1,4.817-3.173l2.079,2.112a8,8,0,1,0-2.7,2.713l-2.063-2.095a5.162,5.162,0,0,1-2.136.443" transform="translate(-164.663 -288.641)" fill="#fd0"/>
  <path id="Path_210" data-name="Path 210" d="M270.844,396.365a1.54,1.54,0,1,0,1.54-1.54,1.54,1.54,0,0,0-1.54,1.54" transform="translate(-264.386 -388.367)" fill="#fd0"/>
  <path id="Path_211" data-name="Path 211" d="M321.663,443.948l-4.15-4.149a1.349,1.349,0,1,0-1.907,1.907l4.15,4.15a1.349,1.349,0,0,0,1.907-1.907" transform="translate(-306.054 -430.233)" fill="#fd0"/>
</svg>
